<?xml version="1.0" encoding="utf-8"?>
<!-- Generator: Adobe Illustrator 16.0.0, SVG Export Plug-In . SVG Version: 6.00 Build 0)  -->
<!DOCTYPE svg PUBLIC "-//W3C//DTD SVG 1.1//EN" "http://www.w3.org/Graphics/SVG/1.1/DTD/svg11.dtd">
<svg version="1.1" id="Layer_1" xmlns="http://www.w3.org/2000/svg" xmlns:xlink="http://www.w3.org/1999/xlink" x="0px" y="0px"
	 width="23px" height="16px" viewBox="0 0 23 16" enable-background="new 0 0 23 16" xml:space="preserve">
<g>
	<path fill-rule="evenodd" clip-rule="evenodd" d="M17.5,15h-12C5.2,15,5,15.2,5,15.5S5.2,16,5.5,16h12c0.3,0,0.5-0.2,0.5-0.5
		S17.8,15,17.5,15z M21.5,3C20.7,3,20,3.7,20,4.5c0,0.5,0.2,0.9,0.6,1.2L13.9,10L11.8,3C12.5,2.8,13,2.2,13,1.5
		C13,0.7,12.3,0,11.5,0S10,0.7,10,1.5c0,0.7,0.5,1.3,1.2,1.5L9.1,10L2.4,5.7C2.8,5.4,3,5,3,4.5C3,3.7,2.3,3,1.5,3S0,3.7,0,4.5
		C0,5.3,0.7,6,1.5,6C1.7,6,2,5.9,2.2,5.8L5.5,14l12,0l3.3-8.2C21,5.9,21.3,6,21.5,6C22.3,6,23,5.3,23,4.5C23,3.7,22.3,3,21.5,3z"/>
</g>
</svg>
