<?xml version="1.0" encoding="utf-8"?>
<!-- Generator: Adobe Illustrator 16.0.0, SVG Export Plug-In . SVG Version: 6.00 Build 0)  -->
<!DOCTYPE svg PUBLIC "-//W3C//DTD SVG 1.1//EN" "http://www.w3.org/Graphics/SVG/1.1/DTD/svg11.dtd">
<svg version="1.1" id="Layer_1" xmlns="http://www.w3.org/2000/svg" xmlns:xlink="http://www.w3.org/1999/xlink" x="0px" y="0px"
	 width="17px" height="17px" viewBox="0 0 17 17" enable-background="new 0 0 17 17" xml:space="preserve">
<g>
	<path fill-rule="evenodd" clip-rule="evenodd" d="M8.5,0C3.8,0,0,3.8,0,8.5C0,13.2,3.8,17,8.5,17c4.7,0,8.5-3.8,8.5-8.5
		C17,3.8,13.2,0,8.5,0z M10,10.6v1.8c0,0.8-0.7,1.5-1.5,1.5S7,13.3,7,12.5v-1.8c-1.2-0.6-2-1.8-2-3.1C5,5.6,6.6,4,8.5,4
		S12,5.6,12,7.5C12,8.9,11.2,10.1,10,10.6z"/>
</g>
</svg>
