<?xml version="1.0" encoding="utf-8"?>
<!-- Generator: Adobe Illustrator 16.0.0, SVG Export Plug-In . SVG Version: 6.00 Build 0)  -->
<!DOCTYPE svg PUBLIC "-//W3C//DTD SVG 1.1//EN" "http://www.w3.org/Graphics/SVG/1.1/DTD/svg11.dtd">
<svg version="1.1" id="Layer_1" xmlns="http://www.w3.org/2000/svg" xmlns:xlink="http://www.w3.org/1999/xlink" x="0px" y="0px"
	 width="43px" height="17.7px" viewBox="0 0 43 17.7" enable-background="new 0 0 43 17.7" xml:space="preserve">
<path d="M39.1,2.3c-0.1,0-6.7,3.9-17,3.9l-0.5,0C12,6.1,4.1,2.3,4,2.3l-4-2l2.8,3.5C2.9,4,4.7,6.2,7.6,8.5l-1.9,2
	c-0.3,0.2-0.2,0.6,0.1,0.9s0.8,0.3,1.1,0.1l1.9-2.1c1.1,0.8,2.3,1.6,3.6,2.3c-0.1,0-0.2,0.1-0.3,0.2l-1.6,2.9
	c-0.2,0.3,0,0.6,0.3,0.8c0.4,0.2,0.8,0.1,1-0.1l1.6-2.9c0.1-0.1,0.1-0.2,0.1-0.3c1.5,0.7,3.1,1.3,4.9,1.6c-0.1,0.1-0.1,0.1-0.1,0.2
	l-0.7,3c-0.1,0.3,0.1,0.6,0.5,0.6s0.7-0.1,0.8-0.4l0.7-3c0-0.1,0-0.2,0-0.3c0.7,0.1,1.3,0.1,2,0.1h0c0.7,0,1.4,0,2-0.1
	c0,0.1,0,0.2,0,0.3l0.7,3c0.1,0.3,0.5,0.4,0.8,0.4s0.6-0.4,0.5-0.6l-0.7-3c0-0.1-0.1-0.1-0.1-0.2c1.7-0.3,3.4-0.8,4.8-1.5
	c0,0,0,0.1,0,0.1l1.6,2.9c0.2,0.3,0.6,0.3,1,0.1c0.4-0.2,0.5-0.5,0.3-0.8l-1.6-2.9c0,0,0,0-0.1-0.1c1.3-0.7,2.5-1.4,3.6-2.2l1.8,1.9
	c0.3,0.2,0.7,0.2,1.1-0.1s0.4-0.7,0.1-0.9l-1.7-1.8c2.9-2.4,4.5-4.7,4.7-4.9L43,0L39.1,2.3z M21.6,12.2c-5.7,0-10.9-3.6-14-6.4
	c3.4,1.1,8.4,2.3,14,2.4l0.5,0c0,0,0,0,0,0C27.9,8.2,32.6,7,35.7,6C32.8,8.7,27.8,12.2,21.6,12.2z"/>
</svg>
